<?xml version="1.0" encoding="UTF-8"?>
<svg xmlns="http://www.w3.org/2000/svg" viewBox="0 0 900 400" width="900" height="400">

  <defs>
    <!-- Blue-to-white gradient: high value = deep blue, low value = white -->
    <!-- Defined inline via fill colors computed per cell -->
  </defs>

  <!-- Background -->
  <rect width="900" height="400" fill="#f8f9fa" rx="8"/>

  <!-- Title -->
  <text x="450" y="28" font-family="Arial, sans-serif" font-size="15" font-weight="bold"
        fill="#1f4fa3" text-anchor="middle">Attention Sink Phenomenon</text>

  <!-- ===== LEFT PANEL: Standard window, sink present ===== -->
  <text x="210" y="54" font-family="Arial, sans-serif" font-size="11" font-weight="bold"
        fill="#1f4fa3" text-anchor="middle">Standard Window: Sink Present</text>

  <!-- Axis labels -->
  <!-- Y-axis label (rotated) -->
  <text x="42" y="230" font-family="Arial, sans-serif" font-size="10" fill="#5b6675"
        text-anchor="middle" transform="rotate(-90 42 230)">Query token index</text>
  <!-- X-axis label -->
  <text x="210" y="375" font-family="Arial, sans-serif" font-size="10" fill="#5b6675"
        text-anchor="middle">Key token index</text>

  <!-- X-axis tick labels -->
  <text x="83"  y="362" font-family="Arial, sans-serif" font-size="8.5" fill="#5b6675" text-anchor="middle">0</text>
  <text x="110" y="362" font-family="Arial, sans-serif" font-size="8.5" fill="#5b6675" text-anchor="middle">1</text>
  <text x="137" y="362" font-family="Arial, sans-serif" font-size="8.5" fill="#5b6675" text-anchor="middle">2</text>
  <text x="164" y="362" font-family="Arial, sans-serif" font-size="8.5" fill="#5b6675" text-anchor="middle">3</text>
  <text x="191" y="362" font-family="Arial, sans-serif" font-size="8.5" fill="#5b6675" text-anchor="middle">4</text>
  <text x="218" y="362" font-family="Arial, sans-serif" font-size="8.5" fill="#5b6675" text-anchor="middle">5</text>
  <text x="245" y="362" font-family="Arial, sans-serif" font-size="8.5" fill="#5b6675" text-anchor="middle">6</text>
  <text x="272" y="362" font-family="Arial, sans-serif" font-size="8.5" fill="#5b6675" text-anchor="middle">7</text>

  <!-- Y-axis tick labels -->
  <text x="71" y="90"  font-family="Arial, sans-serif" font-size="8.5" fill="#5b6675" text-anchor="end">0</text>
  <text x="71" y="117" font-family="Arial, sans-serif" font-size="8.5" fill="#5b6675" text-anchor="end">1</text>
  <text x="71" y="144" font-family="Arial, sans-serif" font-size="8.5" fill="#5b6675" text-anchor="end">2</text>
  <text x="71" y="171" font-family="Arial, sans-serif" font-size="8.5" fill="#5b6675" text-anchor="end">3</text>
  <text x="71" y="198" font-family="Arial, sans-serif" font-size="8.5" fill="#5b6675" text-anchor="end">4</text>
  <text x="71" y="225" font-family="Arial, sans-serif" font-size="8.5" fill="#5b6675" text-anchor="end">5</text>
  <text x="71" y="252" font-family="Arial, sans-serif" font-size="8.5" fill="#5b6675" text-anchor="end">6</text>
  <text x="71" y="279" font-family="Arial, sans-serif" font-size="8.5" fill="#5b6675" text-anchor="end">7</text>

  <!--
    Grid: 8 rows (query) x 8 cols (key).
    Origin top-left at (74, 74). Cell size = 27x27.
    Color scheme: high attention = #1f4fa3 (deep blue), low = #f0f4ff (near white).
    Column 0 has high values (0.6-0.8), rest scattered low (0.05-0.2).
    Causal mask: upper triangle = masked (#e8e8e8).
  -->

  <!-- Row 0 (query=0): only key=0 visible (causal), col0=high -->
  <!-- k=0: high -->
  <rect x="74"  y="74" width="27" height="27" fill="#1a4496"/>
  <!-- k=1..7: masked -->
  <rect x="101" y="74" width="27" height="27" fill="#d8d8d8"/>
  <rect x="128" y="74" width="27" height="27" fill="#d8d8d8"/>
  <rect x="155" y="74" width="27" height="27" fill="#d8d8d8"/>
  <rect x="182" y="74" width="27" height="27" fill="#d8d8d8"/>
  <rect x="209" y="74" width="27" height="27" fill="#d8d8d8"/>
  <rect x="236" y="74" width="27" height="27" fill="#d8d8d8"/>
  <rect x="263" y="74" width="27" height="27" fill="#d8d8d8"/>

  <!-- Row 1 (query=1): keys 0,1 visible -->
  <rect x="74"  y="101" width="27" height="27" fill="#1f4fa3"/>
  <rect x="101" y="101" width="27" height="27" fill="#c8d9f7"/>
  <rect x="128" y="101" width="27" height="27" fill="#d8d8d8"/>
  <rect x="155" y="101" width="27" height="27" fill="#d8d8d8"/>
  <rect x="182" y="101" width="27" height="27" fill="#d8d8d8"/>
  <rect x="209" y="101" width="27" height="27" fill="#d8d8d8"/>
  <rect x="236" y="101" width="27" height="27" fill="#d8d8d8"/>
  <rect x="263" y="101" width="27" height="27" fill="#d8d8d8"/>

  <!-- Row 2 (query=2) -->
  <rect x="74"  y="128" width="27" height="27" fill="#1f4fa3"/>
  <rect x="101" y="128" width="27" height="27" fill="#dce8fb"/>
  <rect x="128" y="128" width="27" height="27" fill="#b8ccf5"/>
  <rect x="155" y="128" width="27" height="27" fill="#d8d8d8"/>
  <rect x="182" y="128" width="27" height="27" fill="#d8d8d8"/>
  <rect x="209" y="128" width="27" height="27" fill="#d8d8d8"/>
  <rect x="236" y="128" width="27" height="27" fill="#d8d8d8"/>
  <rect x="263" y="128" width="27" height="27" fill="#d8d8d8"/>

  <!-- Row 3 (query=3) -->
  <rect x="74"  y="155" width="27" height="27" fill="#2055b0"/>
  <rect x="101" y="155" width="27" height="27" fill="#e8f0fd"/>
  <rect x="128" y="155" width="27" height="27" fill="#d0e0fa"/>
  <rect x="155" y="155" width="27" height="27" fill="#a0bdf0"/>
  <rect x="182" y="155" width="27" height="27" fill="#d8d8d8"/>
  <rect x="209" y="155" width="27" height="27" fill="#d8d8d8"/>
  <rect x="236" y="155" width="27" height="27" fill="#d8d8d8"/>
  <rect x="263" y="155" width="27" height="27" fill="#d8d8d8"/>

  <!-- Row 4 (query=4) -->
  <rect x="74"  y="182" width="27" height="27" fill="#1f4fa3"/>
  <rect x="101" y="182" width="27" height="27" fill="#f0f4ff"/>
  <rect x="128" y="182" width="27" height="27" fill="#cddcf9"/>
  <rect x="155" y="182" width="27" height="27" fill="#e4ecfc"/>
  <rect x="182" y="182" width="27" height="27" fill="#9ab9ee"/>
  <rect x="209" y="182" width="27" height="27" fill="#d8d8d8"/>
  <rect x="236" y="182" width="27" height="27" fill="#d8d8d8"/>
  <rect x="263" y="182" width="27" height="27" fill="#d8d8d8"/>

  <!-- Row 5 (query=5) -->
  <rect x="74"  y="209" width="27" height="27" fill="#234fb5"/>
  <rect x="101" y="209" width="27" height="27" fill="#eef3fd"/>
  <rect x="128" y="209" width="27" height="27" fill="#d8e6fb"/>
  <rect x="155" y="209" width="27" height="27" fill="#f2f6fe"/>
  <rect x="182" y="209" width="27" height="27" fill="#c4d7f8"/>
  <rect x="209" y="209" width="27" height="27" fill="#8fb3ec"/>
  <rect x="236" y="209" width="27" height="27" fill="#d8d8d8"/>
  <rect x="263" y="209" width="27" height="27" fill="#d8d8d8"/>

  <!-- Row 6 (query=6) -->
  <rect x="74"  y="236" width="27" height="27" fill="#1f4fa3"/>
  <rect x="101" y="236" width="27" height="27" fill="#f0f4ff"/>
  <rect x="128" y="236" width="27" height="27" fill="#e8f0fd"/>
  <rect x="155" y="236" width="27" height="27" fill="#cddcf9"/>
  <rect x="182" y="236" width="27" height="27" fill="#f0f4ff"/>
  <rect x="209" y="236" width="27" height="27" fill="#b5caf4"/>
  <rect x="236" y="236" width="27" height="27" fill="#7daae8"/>
  <rect x="263" y="236" width="27" height="27" fill="#d8d8d8"/>

  <!-- Row 7 (query=7) -->
  <rect x="74"  y="263" width="27" height="27" fill="#2157b8"/>
  <rect x="101" y="263" width="27" height="27" fill="#edf2fd"/>
  <rect x="128" y="263" width="27" height="27" fill="#f2f6fe"/>
  <rect x="155" y="263" width="27" height="27" fill="#d8e6fb"/>
  <rect x="182" y="263" width="27" height="27" fill="#e8f0fd"/>
  <rect x="209" y="263" width="27" height="27" fill="#cddcf9"/>
  <rect x="236" y="263" width="27" height="27" fill="#a8c0f2"/>
  <rect x="263" y="263" width="27" height="27" fill="#6a9ee4"/>

  <!-- Grid border -->
  <rect x="74" y="74" width="216" height="216" fill="none" stroke="#aab4c8" stroke-width="0.8"/>
  <!-- Grid lines -->
  <line x1="74"  y1="74" x2="74"  y2="290" stroke="#aab4c8" stroke-width="0.4"/>
  <line x1="101" y1="74" x2="101" y2="290" stroke="#aab4c8" stroke-width="0.4"/>
  <line x1="128" y1="74" x2="128" y2="290" stroke="#aab4c8" stroke-width="0.4"/>
  <line x1="155" y1="74" x2="155" y2="290" stroke="#aab4c8" stroke-width="0.4"/>
  <line x1="182" y1="74" x2="182" y2="290" stroke="#aab4c8" stroke-width="0.4"/>
  <line x1="209" y1="74" x2="209" y2="290" stroke="#aab4c8" stroke-width="0.4"/>
  <line x1="236" y1="74" x2="236" y2="290" stroke="#aab4c8" stroke-width="0.4"/>
  <line x1="263" y1="74" x2="263" y2="290" stroke="#aab4c8" stroke-width="0.4"/>
  <line x1="290" y1="74" x2="290" y2="290" stroke="#aab4c8" stroke-width="0.4"/>
  <line x1="74"  y1="74"  x2="290" y2="74"  stroke="#aab4c8" stroke-width="0.4"/>
  <line x1="74"  y1="101" x2="290" y2="101" stroke="#aab4c8" stroke-width="0.4"/>
  <line x1="74"  y1="128" x2="290" y2="128" stroke="#aab4c8" stroke-width="0.4"/>
  <line x1="74"  y1="155" x2="290" y2="155" stroke="#aab4c8" stroke-width="0.4"/>
  <line x1="74"  y1="182" x2="290" y2="182" stroke="#aab4c8" stroke-width="0.4"/>
  <line x1="74"  y1="209" x2="290" y2="209" stroke="#aab4c8" stroke-width="0.4"/>
  <line x1="74"  y1="236" x2="290" y2="236" stroke="#aab4c8" stroke-width="0.4"/>
  <line x1="74"  y1="263" x2="290" y2="263" stroke="#aab4c8" stroke-width="0.4"/>
  <line x1="74"  y1="290" x2="290" y2="290" stroke="#aab4c8" stroke-width="0.4"/>

  <!-- Highlight column 0 with border -->
  <rect x="74" y="74" width="27" height="216" fill="none" stroke="#e05252" stroke-width="2"/>

  <!-- Annotation: "sink" label -->
  <text x="87" y="310" font-family="Arial, sans-serif" font-size="9" font-weight="bold"
        fill="#e05252" text-anchor="middle">sink</text>
  <line x1="87" y1="304" x2="87" y2="292" stroke="#e05252" stroke-width="1.2" stroke-dasharray="3,2"/>

  <!-- Legend for left panel -->
  <text x="74"  y="336" font-family="Arial, sans-serif" font-size="8.5" fill="#5b6675">High attn</text>
  <rect x="74"  y="340" width="14" height="10" fill="#1f4fa3" rx="2"/>
  <rect x="92"  y="340" width="14" height="10" fill="#7daae8" rx="2"/>
  <rect x="110" y="340" width="14" height="10" fill="#b5caf4" rx="2"/>
  <rect x="128" y="340" width="14" height="10" fill="#dce8fb" rx="2"/>
  <rect x="146" y="340" width="14" height="10" fill="#f0f4ff" rx="2"/>
  <text x="165" y="349" font-family="Arial, sans-serif" font-size="8.5" fill="#5b6675">Low attn</text>
  <rect x="200" y="340" width="14" height="10" fill="#d8d8d8" rx="2"/>
  <text x="218" y="349" font-family="Arial, sans-serif" font-size="8.5" fill="#5b6675">Masked</text>


  <!-- ===== RIGHT PANEL: Evicted sink, collapse ===== -->
  <text x="670" y="54" font-family="Arial, sans-serif" font-size="11" font-weight="bold"
        fill="#c0392b" text-anchor="middle">Evicted Sink: Collapse</text>

  <!-- Y-axis label -->
  <text x="402" y="230" font-family="Arial, sans-serif" font-size="10" fill="#5b6675"
        text-anchor="middle" transform="rotate(-90 402 230)">Query token index</text>
  <!-- X-axis label -->
  <text x="670" y="375" font-family="Arial, sans-serif" font-size="10" fill="#5b6675"
        text-anchor="middle">Key token index (tok 0-3 evicted)</text>

  <!-- X-axis tick labels for right panel (showing tokens 4-11 after eviction) -->
  <text x="443" y="362" font-family="Arial, sans-serif" font-size="8.5" fill="#5b6675" text-anchor="middle">4</text>
  <text x="470" y="362" font-family="Arial, sans-serif" font-size="8.5" fill="#5b6675" text-anchor="middle">5</text>
  <text x="497" y="362" font-family="Arial, sans-serif" font-size="8.5" fill="#5b6675" text-anchor="middle">6</text>
  <text x="524" y="362" font-family="Arial, sans-serif" font-size="8.5" fill="#5b6675" text-anchor="middle">7</text>
  <text x="551" y="362" font-family="Arial, sans-serif" font-size="8.5" fill="#5b6675" text-anchor="middle">8</text>
  <text x="578" y="362" font-family="Arial, sans-serif" font-size="8.5" fill="#5b6675" text-anchor="middle">9</text>
  <text x="605" y="362" font-family="Arial, sans-serif" font-size="8.5" fill="#5b6675" text-anchor="middle">10</text>
  <text x="632" y="362" font-family="Arial, sans-serif" font-size="8.5" fill="#5b6675" text-anchor="middle">11</text>

  <!-- Y-axis tick labels for right panel -->
  <text x="431" y="90"  font-family="Arial, sans-serif" font-size="8.5" fill="#5b6675" text-anchor="end">4</text>
  <text x="431" y="117" font-family="Arial, sans-serif" font-size="8.5" fill="#5b6675" text-anchor="end">5</text>
  <text x="431" y="144" font-family="Arial, sans-serif" font-size="8.5" fill="#5b6675" text-anchor="end">6</text>
  <text x="431" y="171" font-family="Arial, sans-serif" font-size="8.5" fill="#5b6675" text-anchor="end">7</text>
  <text x="431" y="198" font-family="Arial, sans-serif" font-size="8.5" fill="#5b6675" text-anchor="end">8</text>
  <text x="431" y="225" font-family="Arial, sans-serif" font-size="8.5" fill="#5b6675" text-anchor="end">9</text>
  <text x="431" y="252" font-family="Arial, sans-serif" font-size="8.5" fill="#5b6675" text-anchor="end">10</text>
  <text x="431" y="279" font-family="Arial, sans-serif" font-size="8.5" fill="#5b6675" text-anchor="end">11</text>

  <!--
    Right panel: sink column removed.
    Attention redistributes chaotically — no strong column, erratic pattern, low-entropy uniform-ish.
    Also causal mask in upper triangle.
  -->

  <!-- Row 0 (query=4): only key=4 visible -->
  <rect x="434" y="74" width="27" height="27" fill="#6a9ee4"/>
  <rect x="461" y="74" width="27" height="27" fill="#d8d8d8"/>
  <rect x="488" y="74" width="27" height="27" fill="#d8d8d8"/>
  <rect x="515" y="74" width="27" height="27" fill="#d8d8d8"/>
  <rect x="542" y="74" width="27" height="27" fill="#d8d8d8"/>
  <rect x="569" y="74" width="27" height="27" fill="#d8d8d8"/>
  <rect x="596" y="74" width="27" height="27" fill="#d8d8d8"/>
  <rect x="623" y="74" width="27" height="27" fill="#d8d8d8"/>

  <!-- Row 1 (query=5) -->
  <rect x="434" y="101" width="27" height="27" fill="#dce8fb"/>
  <rect x="461" y="101" width="27" height="27" fill="#9ab9ee"/>
  <rect x="488" y="101" width="27" height="27" fill="#d8d8d8"/>
  <rect x="515" y="101" width="27" height="27" fill="#d8d8d8"/>
  <rect x="542" y="101" width="27" height="27" fill="#d8d8d8"/>
  <rect x="569" y="101" width="27" height="27" fill="#d8d8d8"/>
  <rect x="596" y="101" width="27" height="27" fill="#d8d8d8"/>
  <rect x="623" y="101" width="27" height="27" fill="#d8d8d8"/>

  <!-- Row 2 (query=6): chaotic redistribution -->
  <rect x="434" y="128" width="27" height="27" fill="#f0f4ff"/>
  <rect x="461" y="128" width="27" height="27" fill="#7daae8"/>
  <rect x="488" y="128" width="27" height="27" fill="#b5caf4"/>
  <rect x="515" y="128" width="27" height="27" fill="#d8d8d8"/>
  <rect x="542" y="128" width="27" height="27" fill="#d8d8d8"/>
  <rect x="569" y="128" width="27" height="27" fill="#d8d8d8"/>
  <rect x="596" y="128" width="27" height="27" fill="#d8d8d8"/>
  <rect x="623" y="128" width="27" height="27" fill="#d8d8d8"/>

  <!-- Row 3 (query=7) -->
  <rect x="434" y="155" width="27" height="27" fill="#cddcf9"/>
  <rect x="461" y="155" width="27" height="27" fill="#f0f4ff"/>
  <rect x="488" y="155" width="27" height="27" fill="#6a9ee4"/>
  <rect x="515" y="155" width="27" height="27" fill="#e8f0fd"/>
  <rect x="542" y="155" width="27" height="27" fill="#d8d8d8"/>
  <rect x="569" y="155" width="27" height="27" fill="#d8d8d8"/>
  <rect x="596" y="155" width="27" height="27" fill="#d8d8d8"/>
  <rect x="623" y="155" width="27" height="27" fill="#d8d8d8"/>

  <!-- Row 4 (query=8) -->
  <rect x="434" y="182" width="27" height="27" fill="#e8f0fd"/>
  <rect x="461" y="182" width="27" height="27" fill="#cddcf9"/>
  <rect x="488" y="182" width="27" height="27" fill="#f0f4ff"/>
  <rect x="515" y="182" width="27" height="27" fill="#7daae8"/>
  <rect x="542" y="182" width="27" height="27" fill="#dce8fb"/>
  <rect x="569" y="182" width="27" height="27" fill="#d8d8d8"/>
  <rect x="596" y="182" width="27" height="27" fill="#d8d8d8"/>
  <rect x="623" y="182" width="27" height="27" fill="#d8d8d8"/>

  <!-- Row 5 (query=9) -->
  <rect x="434" y="209" width="27" height="27" fill="#f0f4ff"/>
  <rect x="461" y="209" width="27" height="27" fill="#e8f0fd"/>
  <rect x="488" y="209" width="27" height="27" fill="#b5caf4"/>
  <rect x="515" y="209" width="27" height="27" fill="#f0f4ff"/>
  <rect x="542" y="209" width="27" height="27" fill="#9ab9ee"/>
  <rect x="569" y="209" width="27" height="27" fill="#cddcf9"/>
  <rect x="596" y="209" width="27" height="27" fill="#d8d8d8"/>
  <rect x="623" y="209" width="27" height="27" fill="#d8d8d8"/>

  <!-- Row 6 (query=10) -->
  <rect x="434" y="236" width="27" height="27" fill="#dce8fb"/>
  <rect x="461" y="236" width="27" height="27" fill="#f0f4ff"/>
  <rect x="488" y="236" width="27" height="27" fill="#e8f0fd"/>
  <rect x="515" y="236" width="27" height="27" fill="#6a9ee4"/>
  <rect x="542" y="236" width="27" height="27" fill="#f0f4ff"/>
  <rect x="569" y="236" width="27" height="27" fill="#e8f0fd"/>
  <rect x="596" y="236" width="27" height="27" fill="#b5caf4"/>
  <rect x="623" y="236" width="27" height="27" fill="#d8d8d8"/>

  <!-- Row 7 (query=11) -->
  <rect x="434" y="263" width="27" height="27" fill="#cddcf9"/>
  <rect x="461" y="263" width="27" height="27" fill="#dce8fb"/>
  <rect x="488" y="263" width="27" height="27" fill="#f0f4ff"/>
  <rect x="515" y="263" width="27" height="27" fill="#e8f0fd"/>
  <rect x="542" y="263" width="27" height="27" fill="#7daae8"/>
  <rect x="569" y="263" width="27" height="27" fill="#f0f4ff"/>
  <rect x="596" y="263" width="27" height="27" fill="#cddcf9"/>
  <rect x="623" y="263" width="27" height="27" fill="#9ab9ee"/>

  <!-- Grid border and lines for right panel -->
  <rect x="434" y="74" width="216" height="216" fill="none" stroke="#aab4c8" stroke-width="0.8"/>
  <line x1="434" y1="74" x2="434" y2="290" stroke="#aab4c8" stroke-width="0.4"/>
  <line x1="461" y1="74" x2="461" y2="290" stroke="#aab4c8" stroke-width="0.4"/>
  <line x1="488" y1="74" x2="488" y2="290" stroke="#aab4c8" stroke-width="0.4"/>
  <line x1="515" y1="74" x2="515" y2="290" stroke="#aab4c8" stroke-width="0.4"/>
  <line x1="542" y1="74" x2="542" y2="290" stroke="#aab4c8" stroke-width="0.4"/>
  <line x1="569" y1="74" x2="569" y2="290" stroke="#aab4c8" stroke-width="0.4"/>
  <line x1="596" y1="74" x2="596" y2="290" stroke="#aab4c8" stroke-width="0.4"/>
  <line x1="623" y1="74" x2="623" y2="290" stroke="#aab4c8" stroke-width="0.4"/>
  <line x1="650" y1="74" x2="650" y2="290" stroke="#aab4c8" stroke-width="0.4"/>
  <line x1="434" y1="74"  x2="650" y2="74"  stroke="#aab4c8" stroke-width="0.4"/>
  <line x1="434" y1="101" x2="650" y2="101" stroke="#aab4c8" stroke-width="0.4"/>
  <line x1="434" y1="128" x2="650" y2="128" stroke="#aab4c8" stroke-width="0.4"/>
  <line x1="434" y1="155" x2="650" y2="155" stroke="#aab4c8" stroke-width="0.4"/>
  <line x1="434" y1="182" x2="650" y2="182" stroke="#aab4c8" stroke-width="0.4"/>
  <line x1="434" y1="209" x2="650" y2="209" stroke="#aab4c8" stroke-width="0.4"/>
  <line x1="434" y1="236" x2="650" y2="236" stroke="#aab4c8" stroke-width="0.4"/>
  <line x1="434" y1="263" x2="650" y2="263" stroke="#aab4c8" stroke-width="0.4"/>
  <line x1="434" y1="290" x2="650" y2="290" stroke="#aab4c8" stroke-width="0.4"/>

  <!-- Big red X overlay to indicate collapse -->
  <line x1="434" y1="74" x2="650" y2="290" stroke="#e05252" stroke-width="3" stroke-opacity="0.35"/>
  <line x1="650" y1="74" x2="434" y2="290" stroke="#e05252" stroke-width="3" stroke-opacity="0.35"/>

  <!-- Annotation: "no dominant sink" -->
  <text x="542" y="308" font-family="Arial, sans-serif" font-size="9" font-weight="bold"
        fill="#e05252" text-anchor="middle">No dominant sink — perplexity spikes</text>

  <!-- Divider between panels -->
  <line x1="360" y1="60" x2="360" y2="345" stroke="#c8cfd8" stroke-width="1.5" stroke-dasharray="6,4"/>
  <text x="360" y="55" font-family="Arial, sans-serif" font-size="9" fill="#c8cfd8"
        text-anchor="middle">vs</text>

  <!-- Colorscale legend (bottom center) -->
  <text x="450" y="336" font-family="Arial, sans-serif" font-size="8.5" font-weight="bold"
        fill="#5b6675" text-anchor="middle">Attention weight color scale</text>
  <rect x="380" y="340" width="18" height="11" fill="#1f4fa3" rx="2"/>
  <rect x="400" y="340" width="18" height="11" fill="#5a8edb" rx="2"/>
  <rect x="420" y="340" width="18" height="11" fill="#8fb3ec" rx="2"/>
  <rect x="440" y="340" width="18" height="11" fill="#b5caf4" rx="2"/>
  <rect x="460" y="340" width="18" height="11" fill="#dce8fb" rx="2"/>
  <rect x="480" y="340" width="18" height="11" fill="#f0f4ff" rx="2"/>
  <text x="376" y="349" font-family="Arial, sans-serif" font-size="8" fill="#5b6675" text-anchor="end">High</text>
  <text x="502" y="349" font-family="Arial, sans-serif" font-size="8" fill="#5b6675">Low</text>
  <rect x="525" y="340" width="18" height="11" fill="#d8d8d8" rx="2"/>
  <text x="547" y="349" font-family="Arial, sans-serif" font-size="8" fill="#5b6675">Masked</text>

  <!-- Bottom bar -->
  <rect x="14" y="382" width="872" height="14" rx="4" fill="#1f4fa3"/>
  <text x="450" y="392" font-family="Arial, sans-serif" font-size="9" font-weight="bold"
        fill="white" text-anchor="middle" dominant-baseline="middle">
    Attention sinks (tok 0) absorb excess softmax probability; evicting them destroys the normalization anchor and causes perplexity collapse
  </text>

</svg>
